<svg xmlns="http://www.w3.org/2000/svg" xmlns:xlink="http://www.w3.org/1999/xlink" width="2000" zoomAndPan="magnify" viewBox="0 0 1500 1499.999933" height="2000" preserveAspectRatio="xMidYMid meet" version="1.0"><defs><g/><clipPath id="c87d0cd0a1"><path d="M 168.09375 128.253906 L 1332 128.253906 L 1332 705.949219 L 168.09375 705.949219 Z M 168.09375 128.253906 " clip-rule="nonzero"/></clipPath><clipPath id="af43f91d32"><path d="M 194 153 L 1306 153 L 1306 705.949219 L 194 705.949219 Z M 194 153 " clip-rule="nonzero"/></clipPath><clipPath id="8613195040"><path d="M 29 0.199219 L 30 0.199219 L 30 1 L 29 1 Z M 29 0.199219 " clip-rule="nonzero"/></clipPath><clipPath id="13dfdc9293"><rect x="0" width="1239" y="0" height="645"/></clipPath><clipPath id="fa98e519cc"><path d="M 0.320312 58 L 1 58 L 1 59 L 0.320312 59 Z M 0.320312 58 " clip-rule="nonzero"/></clipPath><clipPath id="f8f9bd0ae2"><rect x="0" width="827" y="0" height="79"/></clipPath><clipPath id="842a83bbac"><rect x="0" width="473" y="0" height="80"/></clipPath></defs><g clip-path="url(#c87d0cd0a1)"><path fill="#393636" d="M 338.34375 1121.574219 C 346.203125 1129.421875 354.28125 1137.039062 362.578125 1144.425781 C 370.875 1151.8125 379.375 1158.953125 388.078125 1165.851562 C 396.785156 1172.75 405.679688 1179.394531 414.765625 1185.785156 C 423.851562 1192.175781 433.113281 1198.296875 442.550781 1204.15625 C 451.984375 1210.015625 461.582031 1215.601562 471.339844 1220.910156 C 481.09375 1226.21875 490.996094 1231.246094 501.039062 1235.988281 C 511.082031 1240.730469 521.253906 1245.179688 531.554688 1249.339844 C 541.851562 1253.5 552.261719 1257.363281 562.78125 1260.925781 C 573.304688 1264.488281 583.917969 1267.746094 594.625 1270.703125 C 605.332031 1273.660156 616.113281 1276.304688 626.972656 1278.644531 C 637.832031 1280.980469 648.746094 1283.003906 659.722656 1284.71875 C 670.695312 1286.429688 681.710938 1287.828125 692.765625 1288.910156 C 703.820312 1289.992188 714.898438 1290.753906 725.996094 1291.203125 C 737.09375 1291.648438 748.195312 1291.777344 759.300781 1291.589844 C 770.40625 1291.402344 781.5 1290.894531 792.574219 1290.070312 C 803.652344 1289.246094 814.695312 1288.105469 825.707031 1286.648438 C 836.71875 1285.195312 847.679688 1283.421875 858.589844 1281.339844 C 869.5 1279.253906 880.339844 1276.859375 891.113281 1274.152344 C 901.886719 1271.449219 912.574219 1268.4375 923.175781 1265.117188 C 933.773438 1261.800781 944.269531 1258.183594 954.664062 1254.265625 C 965.058594 1250.34375 975.328125 1246.132812 985.480469 1241.625 C 995.632812 1237.117188 1005.648438 1232.324219 1015.527344 1227.242188 C 1025.402344 1222.164062 1035.125 1216.804688 1044.695312 1211.164062 C 1054.265625 1205.527344 1063.667969 1199.621094 1072.898438 1193.445312 C 1082.132812 1187.269531 1091.179688 1180.832031 1100.042969 1174.136719 C 1108.90625 1167.445312 1117.570312 1160.5 1126.035156 1153.308594 C 1134.5 1146.121094 1142.753906 1138.691406 1150.792969 1131.027344 C 1158.835938 1123.363281 1166.648438 1115.476562 1174.238281 1107.367188 C 1181.824219 1099.253906 1189.175781 1090.933594 1196.289062 1082.402344 C 1203.398438 1073.871094 1210.261719 1065.140625 1216.875 1056.214844 C 1223.484375 1047.289062 1229.835938 1038.183594 1235.925781 1028.894531 C 1242.015625 1019.605469 1247.835938 1010.148438 1253.382812 1000.527344 C 1258.933594 990.90625 1264.199219 981.132812 1269.191406 971.207031 C 1274.179688 961.285156 1278.878906 951.226562 1283.292969 941.03125 C 1287.703125 930.839844 1291.820312 920.527344 1295.644531 910.097656 C 1299.464844 899.667969 1302.984375 889.140625 1306.203125 878.507812 C 1309.421875 867.878906 1312.335938 857.164062 1314.941406 846.367188 C 1317.546875 835.570312 1319.839844 824.707031 1321.824219 813.777344 C 1323.804688 802.847656 1325.472656 791.871094 1326.828125 780.847656 C 1328.183594 769.820312 1329.21875 758.765625 1329.941406 747.683594 C 1330.660156 736.597656 1331.066406 725.503906 1331.152344 714.398438 C 1331.234375 703.289062 1331.003906 692.1875 1330.453125 681.09375 C 1329.902344 670 1329.035156 658.933594 1327.851562 647.886719 C 1326.667969 636.84375 1325.167969 625.84375 1323.351562 614.886719 C 1321.539062 603.925781 1319.410156 593.03125 1316.972656 582.195312 C 1314.535156 571.355469 1311.789062 560.597656 1308.730469 549.921875 C 1305.675781 539.242188 1302.320312 528.660156 1298.660156 518.171875 C 1294.996094 507.683594 1291.039062 497.3125 1286.785156 487.050781 C 1282.527344 476.792969 1277.984375 466.664062 1273.148438 456.664062 C 1268.3125 446.664062 1263.195312 436.808594 1257.792969 427.101562 C 1252.394531 417.398438 1246.722656 407.851562 1240.773438 398.472656 C 1234.828125 389.089844 1228.617188 379.886719 1222.144531 370.859375 C 1215.671875 361.835938 1208.945312 353 1201.964844 344.359375 C 1194.984375 335.71875 1187.765625 327.285156 1180.300781 319.058594 C 1172.839844 310.832031 1165.144531 302.828125 1157.226562 295.039062 C 1149.304688 287.253906 1141.164062 279.699219 1132.8125 272.378906 C 1124.457031 265.058594 1115.902344 257.984375 1107.140625 251.15625 C 1098.382812 244.324219 1089.433594 237.75 1080.300781 231.433594 C 1071.164062 225.117188 1061.855469 219.066406 1052.371094 213.28125 C 1042.890625 207.496094 1033.25 201.988281 1023.453125 196.753906 C 1013.652344 191.523438 1003.714844 186.574219 993.632812 181.914062 C 983.550781 177.25 973.34375 172.878906 963.015625 168.800781 C 952.683594 164.722656 942.242188 160.945312 931.695312 157.464844 C 921.144531 153.984375 910.507812 150.808594 899.777344 147.9375 C 889.046875 145.066406 878.242188 142.503906 867.367188 140.253906 C 856.492188 138 845.558594 136.0625 834.570312 134.4375 C 823.582031 132.808594 812.558594 131.5 801.496094 130.503906 C 790.433594 129.511719 779.347656 128.835938 768.246094 128.476562 C 757.144531 128.113281 746.042969 128.074219 734.941406 128.351562 C 723.835938 128.625 712.75 129.21875 701.679688 130.132812 C 690.609375 131.042969 679.574219 132.269531 668.574219 133.8125 C 657.574219 135.359375 646.628906 137.214844 635.734375 139.386719 C 624.84375 141.554688 614.019531 144.035156 603.269531 146.828125 C 592.515625 149.617188 581.855469 152.710938 571.28125 156.113281 C 560.707031 159.515625 550.238281 163.214844 539.878906 167.214844 C 529.515625 171.21875 519.277344 175.511719 509.160156 180.097656 C 499.042969 184.6875 489.066406 189.558594 479.230469 194.71875 C 469.394531 199.875 459.714844 205.3125 450.1875 211.023438 C 440.664062 216.738281 431.308594 222.71875 422.125 228.96875 C 412.941406 235.21875 403.945312 241.722656 395.136719 248.488281 C 386.324219 255.253906 377.714844 262.261719 369.308594 269.519531 C 360.898438 276.777344 352.707031 284.269531 344.726562 291.996094 C 336.746094 299.722656 328.996094 307.671875 321.46875 315.84375 C 313.945312 324.011719 306.660156 332.394531 299.617188 340.980469 C 292.574219 349.570312 285.78125 358.351562 279.238281 367.328125 C 272.699219 376.304688 266.421875 385.460938 260.402344 394.800781 C 254.386719 404.136719 248.640625 413.636719 243.167969 423.304688 C 237.695312 432.96875 232.503906 442.785156 227.597656 452.746094 C 222.683594 462.710938 218.0625 472.804688 213.730469 483.03125 C 209.398438 493.261719 205.363281 503.605469 201.625 514.0625 C 197.886719 524.523438 194.449219 535.078125 191.3125 545.734375 C 188.179688 556.390625 185.351562 567.128906 182.832031 577.945312 C 180.3125 588.761719 178.101562 599.644531 176.207031 610.589844 C 174.308594 621.53125 172.726562 632.523438 171.460938 643.558594 C 170.195312 654.59375 169.242188 665.65625 168.609375 676.742188 C 167.976562 687.832031 167.660156 698.929688 167.664062 710.039062 C 167.640625 719.570312 167.847656 729.09375 168.296875 738.613281 C 168.742188 748.136719 169.421875 757.636719 170.339844 767.125 C 171.257812 776.609375 172.40625 786.070312 173.792969 795.5 C 175.175781 804.925781 176.792969 814.316406 178.640625 823.667969 C 180.492188 833.015625 182.570312 842.3125 184.878906 851.558594 C 187.1875 860.808594 189.726562 869.992188 192.488281 879.113281 C 195.253906 888.234375 198.238281 897.28125 201.453125 906.253906 C 204.664062 915.226562 208.09375 924.113281 211.746094 932.917969 C 215.398438 941.722656 219.261719 950.429688 223.34375 959.042969 C 227.425781 967.652344 231.71875 976.160156 236.222656 984.558594 C 240.726562 992.957031 245.433594 1001.242188 250.347656 1009.410156 C 255.257812 1017.574219 260.371094 1025.617188 265.679688 1033.527344 C 270.992188 1041.441406 276.496094 1049.21875 282.191406 1056.863281 C 287.886719 1064.503906 293.765625 1072 299.832031 1079.351562 C 305.898438 1086.699219 312.144531 1093.894531 318.566406 1100.9375 C 324.988281 1107.980469 331.582031 1114.859375 338.34375 1121.574219 Z M 749.878906 135.699219 C 1066.460938 135.699219 1323.988281 393.457031 1323.988281 710.039062 C 1323.988281 1026.621094 1066.460938 1284.148438 749.878906 1284.148438 C 433.296875 1284.148438 175.769531 1026.621094 175.769531 710.039062 C 175.769531 393.457031 433.296875 135.699219 749.878906 135.699219 Z M 749.878906 135.699219 " fill-opacity="1" fill-rule="nonzero"/></g><g clip-path="url(#af43f91d32)"><path fill="#393636" d="M 749.878906 1265.851562 C 1056.503906 1265.851562 1305.691406 1016.429688 1305.691406 710.039062 C 1305.691406 403.648438 1056.503906 153.992188 749.878906 153.992188 C 443.253906 153.992188 194.066406 403.414062 194.066406 710.039062 C 194.066406 1016.664062 443.253906 1265.851562 749.878906 1265.851562 Z M 749.878906 162.097656 C 1052.101562 162.097656 1297.820312 407.816406 1297.820312 710.039062 C 1297.820312 1012.261719 1052.101562 1257.980469 749.878906 1257.980469 C 447.65625 1257.980469 201.9375 1012.261719 201.9375 710.039062 C 201.9375 407.816406 447.65625 162.097656 749.878906 162.097656 Z M 749.878906 162.097656 " fill-opacity="1" fill-rule="nonzero"/></g><g transform="matrix(1, 0, 0, 1, 131, 715)"><g clip-path="url(#13dfdc9293)"><g clip-path="url(#8613195040)"><g fill="#393636" fill-opacity="1"><g transform="translate(29.052078, 0.872996)"><g/></g></g></g><g fill="#393636" fill-opacity="1"><g transform="translate(33.490022, 104.581747)"><g><path d="M 11.546875 18.46875 C 9.921875 18.757812 8.773438 19.09375 8.109375 19.46875 C 7.441406 19.851562 7.046875 20.425781 6.921875 21.1875 C 6.796875 21.945312 6.878906 23.140625 7.171875 24.765625 L 7.75 27.953125 C 8.625 32.804688 10.675781 36.773438 13.90625 39.859375 C 17.132812 42.941406 21.066406 44.671875 25.703125 45.046875 C 25.828125 45.023438 25.910156 45.140625 25.953125 45.390625 C 25.972656 45.515625 25.953125 45.660156 25.890625 45.828125 C 25.828125 46.003906 25.769531 46.097656 25.71875 46.109375 C 19.4375 46.660156 14.242188 47.3125 10.140625 48.0625 C 9.640625 48.144531 9.257812 48.097656 9 47.921875 C 8.75 47.753906 8.578125 47.414062 8.484375 46.90625 L 0.5 2.796875 C 0.476562 2.671875 0.65625 2.570312 1.03125 2.5 C 1.40625 2.4375 1.601562 2.46875 1.625 2.59375 C 1.988281 4.59375 2.40625 6.015625 2.875 6.859375 C 3.351562 7.703125 4.070312 8.210938 5.03125 8.390625 C 6 8.578125 7.414062 8.5 9.28125 8.15625 L 52.546875 0.34375 C 54.421875 0 55.765625 -0.421875 56.578125 -0.921875 C 57.390625 -1.421875 57.882812 -2.164062 58.0625 -3.15625 C 58.238281 -4.15625 58.148438 -5.625 57.796875 -7.5625 C 57.773438 -7.6875 57.945312 -7.78125 58.3125 -7.84375 C 58.6875 -7.914062 58.882812 -7.890625 58.90625 -7.765625 L 59.6875 -2.984375 C 60.082031 -0.0859375 60.453125 2.289062 60.796875 4.15625 C 61.128906 6.03125 61.613281 8.382812 62.25 11.21875 L 63.203125 15.96875 C 63.234375 16.15625 63.0625 16.28125 62.6875 16.34375 C 62.320312 16.414062 62.125 16.359375 62.09375 16.171875 C 61.75 14.242188 61.316406 12.84375 60.796875 11.96875 C 60.285156 11.09375 59.546875 10.582031 58.578125 10.4375 C 57.617188 10.289062 56.203125 10.390625 54.328125 10.734375 Z M 11.546875 18.46875 "/></g></g></g><g fill="#393636" fill-opacity="1"><g transform="translate(66.605806, 233.854476)"><g><path d="M 15.28125 17.03125 C 13.46875 17.78125 12.210938 18.46875 11.515625 19.09375 C 10.816406 19.71875 10.492188 20.515625 10.546875 21.484375 C 10.609375 22.453125 11.023438 23.875 11.796875 25.75 C 11.859375 25.914062 11.710938 26.070312 11.359375 26.21875 C 11.003906 26.363281 10.796875 26.351562 10.734375 26.1875 C 9.941406 24.257812 9.347656 22.722656 8.953125 21.578125 L 6.296875 14.859375 L 3.546875 8.390625 C 3.003906 7.253906 2.328125 5.6875 1.515625 3.6875 C 1.460938 3.570312 1.613281 3.441406 1.96875 3.296875 C 2.320312 3.148438 2.523438 3.132812 2.578125 3.25 C 3.347656 5.125 4.054688 6.441406 4.703125 7.203125 C 5.359375 7.960938 6.175781 8.328125 7.15625 8.296875 C 8.132812 8.273438 9.5 7.90625 11.25 7.1875 L 51.9375 -9.46875 C 53.707031 -10.195312 54.9375 -10.890625 55.625 -11.546875 C 56.3125 -12.203125 56.632812 -13.035156 56.59375 -14.046875 C 56.5625 -15.054688 56.160156 -16.5 55.390625 -18.375 C 55.335938 -18.488281 55.484375 -18.617188 55.828125 -18.765625 C 56.179688 -18.910156 56.382812 -18.925781 56.4375 -18.8125 L 58.296875 -14.046875 C 59.285156 -11.285156 60.117188 -9.085938 60.796875 -7.453125 C 61.535156 -5.628906 62.515625 -3.398438 63.734375 -0.765625 L 65.65625 3.6875 C 65.71875 3.851562 65.570312 4.007812 65.21875 4.15625 C 64.875 4.300781 64.671875 4.289062 64.609375 4.125 C 63.859375 2.3125 63.125 1.035156 62.40625 0.296875 C 61.695312 -0.441406 60.859375 -0.78125 59.890625 -0.71875 C 58.921875 -0.664062 57.554688 -0.28125 55.796875 0.4375 Z M 15.28125 17.03125 "/></g></g></g><g fill="#393636" fill-opacity="1"><g transform="translate(116.856179, 336.416832)"><g><path d="M 50.453125 -14.265625 C 48.566406 -12.984375 47.21875 -11.359375 46.40625 -9.390625 C 45.601562 -7.429688 45.128906 -5.367188 44.984375 -3.203125 C 44.847656 -1.046875 44.8125 1.765625 44.875 5.234375 C 44.976562 8.984375 44.929688 12.070312 44.734375 14.5 C 44.546875 16.925781 43.921875 19.300781 42.859375 21.625 C 41.796875 23.957031 40.085938 25.921875 37.734375 27.515625 C 35.003906 29.367188 32.082031 30.28125 28.96875 30.25 C 25.851562 30.226562 22.828125 29.320312 19.890625 27.53125 C 16.953125 25.738281 14.398438 23.242188 12.234375 20.046875 C 10.640625 17.691406 9.296875 15.007812 8.203125 12 C 7.109375 8.988281 6.65625 6.773438 6.84375 5.359375 C 6.875 4.941406 6.9375 4.601562 7.03125 4.34375 C 7.125 4.09375 7.382812 3.820312 7.8125 3.53125 L 20.140625 -5.171875 L 20.21875 -5.21875 C 20.425781 -5.363281 20.632812 -5.3125 20.84375 -5.0625 C 21.050781 -4.820312 21.0625 -4.601562 20.875 -4.40625 C 18.738281 -0.664062 17.078125 2.460938 15.890625 4.984375 C 14.703125 7.503906 13.960938 10.1875 13.671875 13.03125 C 13.378906 15.882812 14.015625 18.460938 15.578125 20.765625 C 16.992188 22.859375 18.722656 24.203125 20.765625 24.796875 C 22.816406 25.390625 25.207031 24.765625 27.9375 22.921875 C 30.25 21.347656 31.921875 19.460938 32.953125 17.265625 C 33.984375 15.078125 34.601562 12.84375 34.8125 10.5625 C 35.03125 8.28125 35.109375 5.285156 35.046875 1.578125 C 34.960938 -2.035156 35.023438 -4.925781 35.234375 -7.09375 C 35.441406 -9.269531 36.019531 -11.40625 36.96875 -13.5 C 37.925781 -15.601562 39.503906 -17.398438 41.703125 -18.890625 C 44.472656 -20.773438 47.359375 -21.566406 50.359375 -21.265625 C 53.359375 -20.960938 56.171875 -19.863281 58.796875 -17.96875 C 61.421875 -16.082031 63.675781 -13.75 65.5625 -10.96875 C 66.800781 -9.132812 67.890625 -7.15625 68.828125 -5.03125 C 69.773438 -2.914062 70.398438 -1.125 70.703125 0.34375 C 70.816406 0.957031 70.804688 1.421875 70.671875 1.734375 C 70.546875 2.054688 70.296875 2.34375 69.921875 2.59375 L 58.375 10.421875 C 58.21875 10.535156 58.007812 10.484375 57.75 10.265625 C 57.5 10.054688 57.429688 9.875 57.546875 9.71875 L 58.609375 8.09375 C 61.023438 4.539062 62.789062 1.101562 63.90625 -2.21875 C 65.019531 -5.539062 64.515625 -8.769531 62.390625 -11.90625 C 60.960938 -14 59.191406 -15.304688 57.078125 -15.828125 C 54.960938 -16.347656 52.753906 -15.828125 50.453125 -14.265625 Z M 50.453125 -14.265625 "/></g></g></g><g fill="#393636" fill-opacity="1"><g transform="translate(197.780171, 439.546738)"><g><path d="M 44.765625 21.046875 C 44.859375 20.941406 45 20.972656 45.1875 21.140625 C 45.320312 21.273438 45.414062 21.429688 45.46875 21.609375 C 45.519531 21.796875 45.523438 21.914062 45.484375 21.96875 C 41.648438 25.144531 38.351562 28.210938 35.59375 31.171875 C 35.25 31.546875 34.929688 31.75 34.640625 31.78125 C 34.347656 31.8125 33.992188 31.632812 33.578125 31.25 L 2.84375 2.65625 C 2.707031 2.519531 2.769531 2.3125 3.03125 2.03125 C 3.289062 1.757812 3.488281 1.691406 3.625 1.828125 C 5.113281 3.203125 6.300781 4.082031 7.1875 4.46875 C 8.070312 4.863281 8.941406 4.832031 9.796875 4.375 C 10.660156 3.925781 11.738281 3.007812 13.03125 1.625 L 42.984375 -30.5625 C 44.285156 -31.957031 45.117188 -33.085938 45.484375 -33.953125 C 45.859375 -34.828125 45.816406 -35.710938 45.359375 -36.609375 C 44.898438 -37.515625 43.945312 -38.632812 42.5 -39.96875 C 42.363281 -40.101562 42.425781 -40.304688 42.6875 -40.578125 C 42.945312 -40.859375 43.144531 -40.929688 43.28125 -40.796875 L 72.765625 -13.375 C 73.222656 -12.9375 73.257812 -12.507812 72.875 -12.09375 L 64.40625 -2.71875 C 64.320312 -2.625 64.128906 -2.671875 63.828125 -2.859375 C 63.523438 -3.054688 63.421875 -3.25 63.515625 -3.4375 C 65.273438 -6.8125 65.875 -9.960938 65.3125 -12.890625 C 64.757812 -15.828125 63.046875 -18.628906 60.171875 -21.296875 L 58.078125 -23.234375 C 56.691406 -24.523438 55.394531 -25.175781 54.1875 -25.1875 C 52.976562 -25.195312 51.789062 -24.578125 50.625 -23.328125 L 37.421875 -9.140625 L 43.203125 -3.765625 C 45.878906 -1.265625 48.367188 0.1875 50.671875 0.59375 C 52.984375 1 54.910156 0.375 56.453125 -1.28125 C 56.585938 -1.425781 56.78125 -1.378906 57.03125 -1.140625 C 57.289062 -0.910156 57.351562 -0.722656 57.21875 -0.578125 L 51.328125 5.609375 L 48.296875 9 C 46.921875 10.675781 45.800781 11.976562 44.9375 12.90625 C 44.851562 13 44.671875 12.914062 44.390625 12.65625 C 44.117188 12.394531 44.023438 12.21875 44.109375 12.125 C 45.878906 10.21875 46.539062 8.039062 46.09375 5.59375 C 45.644531 3.144531 44.054688 0.648438 41.328125 -1.890625 L 35.625 -7.203125 L 21 8.515625 C 19.75 9.859375 19.078125 11.09375 18.984375 12.21875 C 18.890625 13.34375 19.398438 14.425781 20.515625 15.46875 L 22.8125 17.609375 C 26.425781 20.972656 30.007812 22.925781 33.5625 23.46875 C 37.125 24.007812 40.859375 23.203125 44.765625 21.046875 Z M 44.765625 21.046875 "/></g></g></g><g fill="#393636" fill-opacity="1"><g transform="translate(302.131165, 523.378746)"><g/></g></g><g fill="#393636" fill-opacity="1"><g transform="translate(393.99844, 571.541864)"><g><path d="M 32.578125 -41.078125 C 31.796875 -38.929688 31.648438 -36.828125 32.140625 -34.765625 C 32.628906 -32.710938 33.445312 -30.765625 34.59375 -28.921875 C 35.75 -27.078125 37.375 -24.765625 39.46875 -21.984375 C 41.738281 -19.003906 43.503906 -16.472656 44.765625 -14.390625 C 46.035156 -12.316406 46.921875 -10.023438 47.421875 -7.515625 C 47.921875 -5.003906 47.6875 -2.414062 46.71875 0.25 C 45.582031 3.34375 43.742188 5.789062 41.203125 7.59375 C 38.660156 9.394531 35.671875 10.429688 32.234375 10.703125 C 28.804688 10.972656 25.273438 10.441406 21.640625 9.109375 C 18.972656 8.140625 16.316406 6.75 13.671875 4.9375 C 11.023438 3.132812 9.359375 1.597656 8.671875 0.328125 C 8.453125 -0.00390625 8.304688 -0.304688 8.234375 -0.578125 C 8.171875 -0.847656 8.226562 -1.222656 8.40625 -1.703125 L 13.3125 -15.96875 L 13.34375 -16.0625 C 13.425781 -16.289062 13.625 -16.367188 13.9375 -16.296875 C 14.25 -16.222656 14.390625 -16.050781 14.359375 -15.78125 C 14.816406 -11.5 15.300781 -7.988281 15.8125 -5.25 C 16.320312 -2.507812 17.289062 0.0976562 18.71875 2.578125 C 20.144531 5.054688 22.164062 6.773438 24.78125 7.734375 C 27.15625 8.597656 29.347656 8.671875 31.359375 7.953125 C 33.378906 7.242188 34.953125 5.34375 36.078125 2.25 C 37.035156 -0.375 37.289062 -2.878906 36.84375 -5.265625 C 36.394531 -7.648438 35.585938 -9.832031 34.421875 -11.8125 C 33.265625 -13.789062 31.570312 -16.257812 29.34375 -19.21875 C 27.15625 -22.113281 25.515625 -24.5 24.421875 -26.375 C 23.328125 -28.25 22.550781 -30.316406 22.09375 -32.578125 C 21.632812 -34.835938 21.859375 -37.210938 22.765625 -39.703125 C 23.921875 -42.859375 25.800781 -45.191406 28.40625 -46.703125 C 31.007812 -48.210938 33.929688 -48.96875 37.171875 -48.96875 C 40.410156 -48.96875 43.609375 -48.394531 46.765625 -47.25 C 48.847656 -46.488281 50.882812 -45.523438 52.875 -44.359375 C 54.875 -43.191406 56.429688 -42.097656 57.546875 -41.078125 C 58.003906 -40.640625 58.269531 -40.253906 58.34375 -39.921875 C 58.425781 -39.597656 58.390625 -39.222656 58.234375 -38.796875 L 53.453125 -25.6875 C 53.390625 -25.519531 53.1875 -25.441406 52.84375 -25.453125 C 52.507812 -25.472656 52.351562 -25.585938 52.375 -25.796875 L 52.265625 -27.734375 C 52.160156 -32.015625 51.582031 -35.828125 50.53125 -39.171875 C 49.488281 -42.523438 47.1875 -44.851562 43.625 -46.15625 C 41.25 -47.019531 39.050781 -47.039062 37.03125 -46.21875 C 35.019531 -45.40625 33.535156 -43.691406 32.578125 -41.078125 Z M 32.578125 -41.078125 "/></g></g></g><g fill="#393636" fill-opacity="1"><g transform="translate(520.297119, 608.310135)"><g><path d="M 67.796875 6.390625 C 68.109375 6.421875 68.242188 6.625 68.203125 7 C 68.160156 7.382812 67.984375 7.5625 67.671875 7.53125 C 66.410156 7.382812 64.46875 7.101562 61.84375 6.6875 C 59.09375 6.257812 57.117188 5.976562 55.921875 5.84375 C 54.347656 5.664062 52.414062 5.515625 50.125 5.390625 C 47.976562 5.273438 46.273438 5.148438 45.015625 5.015625 C 44.765625 4.984375 44.660156 4.773438 44.703125 4.390625 C 44.742188 4.015625 44.890625 3.84375 45.140625 3.875 C 46.773438 4.050781 47.972656 4.007812 48.734375 3.75 C 49.492188 3.488281 49.925781 2.914062 50.03125 2.03125 C 50.144531 0.96875 49.710938 -0.890625 48.734375 -3.546875 L 43.75 -17.015625 L 20.53125 -19.59375 L 15.921875 -11.796875 C 14.910156 -10.066406 14.316406 -8.414062 14.140625 -6.84375 C 13.890625 -4.570312 14.492188 -2.71875 15.953125 -1.28125 C 17.421875 0.144531 19.503906 1.007812 22.203125 1.3125 C 22.523438 1.351562 22.664062 1.5625 22.625 1.9375 C 22.582031 2.320312 22.398438 2.492188 22.078125 2.453125 C 20.953125 2.328125 19.320312 2.082031 17.1875 1.71875 C 14.820312 1.332031 12.757812 1.039062 11 0.84375 C 9.300781 0.65625 7.242188 0.488281 4.828125 0.34375 C 2.671875 0.226562 0.9375 0.0976562 -0.375 -0.046875 C -0.632812 -0.0664062 -0.742188 -0.265625 -0.703125 -0.640625 C -0.660156 -1.023438 -0.507812 -1.207031 -0.25 -1.1875 C 1.507812 -0.988281 3.03125 -1.179688 4.3125 -1.765625 C 5.59375 -2.359375 6.929688 -3.515625 8.328125 -5.234375 C 9.722656 -6.953125 11.441406 -9.546875 13.484375 -13.015625 L 38.984375 -55.75 C 39.128906 -55.925781 39.421875 -55.988281 39.859375 -55.9375 C 40.367188 -55.882812 40.644531 -55.757812 40.6875 -55.5625 L 59.109375 -6.515625 C 60.804688 -1.804688 62.285156 1.472656 63.546875 3.328125 C 64.804688 5.191406 66.222656 6.210938 67.796875 6.390625 Z M 22.046875 -22.09375 L 42.625 -19.8125 L 34.15625 -42.546875 Z M 22.046875 -22.09375 "/></g></g></g><g fill="#393636" fill-opacity="1"><g transform="translate(671.255648, 614.45134)"><g><path d="M 59.25 -68.75 C 59.382812 -68.769531 59.476562 -68.59375 59.53125 -68.21875 C 59.582031 -67.84375 59.539062 -67.644531 59.40625 -67.625 C 56.894531 -67.257812 55.066406 -65.984375 53.921875 -63.796875 C 52.773438 -61.609375 52.445312 -58.859375 52.9375 -55.546875 L 60.046875 -7.4375 C 60.078125 -7.25 59.957031 -7.097656 59.6875 -6.984375 C 59.414062 -6.878906 59.207031 -6.882812 59.0625 -7 L 7.59375 -50.640625 L 12.984375 -14.109375 C 13.472656 -10.785156 14.550781 -8.253906 16.21875 -6.515625 C 17.882812 -4.785156 19.9375 -4.097656 22.375 -4.453125 C 22.5 -4.472656 22.585938 -4.296875 22.640625 -3.921875 C 22.703125 -3.546875 22.671875 -3.347656 22.546875 -3.328125 C 20.796875 -3.066406 19.441406 -2.898438 18.484375 -2.828125 L 13.40625 -2.171875 L 7.59375 -1.21875 C 6.539062 -1 5.007812 -0.738281 3 -0.4375 C 2.8125 -0.414062 2.6875 -0.59375 2.625 -0.96875 C 2.570312 -1.34375 2.640625 -1.539062 2.828125 -1.5625 C 5.585938 -1.976562 7.625 -3.273438 8.9375 -5.453125 C 10.25 -7.628906 10.660156 -10.378906 10.171875 -13.703125 L 4.296875 -53.4375 C 1.890625 -55.382812 -0.109375 -56.671875 -1.703125 -57.296875 C -3.296875 -57.929688 -4.875 -58.132812 -6.4375 -57.90625 C -6.5625 -57.882812 -6.648438 -58.0625 -6.703125 -58.4375 C -6.753906 -58.8125 -6.71875 -59.007812 -6.59375 -59.03125 L -2.640625 -59.515625 C -1.828125 -59.566406 -0.640625 -59.710938 0.921875 -59.953125 L 8.0625 -61.09375 C 8.925781 -61.289062 9.988281 -61.476562 11.25 -61.65625 C 11.75 -61.726562 12.140625 -61.660156 12.421875 -61.453125 C 12.710938 -61.242188 13.226562 -60.78125 13.96875 -60.0625 C 15.25 -58.769531 16.144531 -57.910156 16.65625 -57.484375 L 54.6875 -24.796875 L 50.203125 -55.140625 C 49.703125 -58.515625 48.617188 -61.070312 46.953125 -62.8125 C 45.296875 -64.550781 43.25 -65.238281 40.8125 -64.875 C 40.6875 -64.863281 40.597656 -65.046875 40.546875 -65.421875 C 40.492188 -65.796875 40.53125 -65.988281 40.65625 -66 L 44.703125 -66.515625 C 46.722656 -66.679688 48.421875 -66.867188 49.796875 -67.078125 C 51.046875 -67.253906 52.796875 -67.570312 55.046875 -68.03125 Z M 59.25 -68.75 "/></g></g></g><g fill="#393636" fill-opacity="1"><g transform="translate(820.485941, 581.436858)"><g><path d="M 28.609375 -11.796875 C 26.753906 -11.003906 24.507812 -10.148438 21.875 -9.234375 C 20.914062 -8.890625 19.738281 -8.453125 18.34375 -7.921875 C 16.957031 -7.398438 15.414062 -6.78125 13.71875 -6.0625 L 7.3125 -3.234375 C 6.164062 -2.671875 4.597656 -1.960938 2.609375 -1.109375 C 2.492188 -1.066406 2.359375 -1.21875 2.203125 -1.5625 C 2.054688 -1.914062 2.039062 -2.113281 2.15625 -2.15625 C 4.03125 -2.957031 5.335938 -3.6875 6.078125 -4.34375 C 6.828125 -5.007812 7.179688 -5.832031 7.140625 -6.8125 C 7.109375 -7.800781 6.722656 -9.171875 5.984375 -10.921875 L -11.265625 -51.359375 C -12.015625 -53.109375 -12.722656 -54.316406 -13.390625 -54.984375 C -14.066406 -55.660156 -14.894531 -55.976562 -15.875 -55.9375 C -16.851562 -55.90625 -18.25 -55.503906 -20.0625 -54.734375 C -20.226562 -54.660156 -20.382812 -54.796875 -20.53125 -55.140625 C -20.6875 -55.492188 -20.679688 -55.707031 -20.515625 -55.78125 L -15.828125 -57.6875 C -13.109375 -58.707031 -10.960938 -59.554688 -9.390625 -60.234375 C -6.992188 -61.253906 -4.582031 -62.378906 -2.15625 -63.609375 C 0.820312 -65.015625 2.832031 -65.941406 3.875 -66.390625 C 9.757812 -68.898438 15.484375 -69.960938 21.046875 -69.578125 C 26.609375 -69.203125 31.5 -67.539062 35.71875 -64.59375 C 39.9375 -61.65625 43.117188 -57.675781 45.265625 -52.65625 C 47.671875 -47.019531 48.5 -41.472656 47.75 -36.015625 C 47.007812 -30.566406 44.941406 -25.726562 41.546875 -21.5 C 38.160156 -17.269531 33.847656 -14.035156 28.609375 -11.796875 Z M 26.90625 -13.4375 C 30.632812 -15.03125 33.515625 -17.378906 35.546875 -20.484375 C 37.585938 -23.597656 38.613281 -27.363281 38.625 -31.78125 C 38.644531 -36.195312 37.550781 -40.988281 35.34375 -46.15625 C 33.226562 -51.113281 30.550781 -55.289062 27.3125 -58.6875 C 24.070312 -62.09375 20.554688 -64.359375 16.765625 -65.484375 C 12.972656 -66.617188 9.242188 -66.40625 5.578125 -64.84375 C 1.960938 -63.300781 -0.359375 -61.894531 -1.390625 -60.625 C -2.429688 -59.363281 -2.46875 -57.597656 -1.5 -55.328125 L 15.28125 -16.015625 C 16.269531 -13.691406 17.578125 -12.304688 19.203125 -11.859375 C 20.835938 -11.421875 23.40625 -11.945312 26.90625 -13.4375 Z M 26.90625 -13.4375 "/></g></g></g><g fill="#393636" fill-opacity="1"><g transform="translate(953.521265, 512.965453)"><g><path d="M 7.125 -47.203125 C 11.757812 -49.921875 16.203125 -51.0625 20.453125 -50.625 C 24.710938 -50.1875 28.140625 -48.253906 30.734375 -44.828125 C 32.722656 -42.203125 33.765625 -39.253906 33.859375 -35.984375 C 33.953125 -32.722656 33.125 -29.460938 31.375 -26.203125 C 29.625 -22.941406 27.113281 -20.070312 23.84375 -17.59375 C 22.425781 -16.519531 20.753906 -15.367188 18.828125 -14.140625 C 18.085938 -13.648438 17.179688 -13.039062 16.109375 -12.3125 C 15.035156 -11.582031 13.867188 -10.738281 12.609375 -9.78125 L 7.125 -5.515625 C 6.164062 -4.703125 4.828125 -3.644531 3.109375 -2.34375 C 2.953125 -2.226562 2.757812 -2.320312 2.53125 -2.625 C 2.300781 -2.925781 2.265625 -3.132812 2.421875 -3.25 C 3.878906 -4.363281 4.878906 -5.347656 5.421875 -6.203125 C 5.972656 -7.054688 6.132812 -7.972656 5.90625 -8.953125 C 5.6875 -9.929688 5.023438 -11.148438 3.921875 -12.609375 L -22.625 -47.671875 C -24.226562 -49.796875 -25.640625 -50.925781 -26.859375 -51.0625 C -28.085938 -51.207031 -29.789062 -50.457031 -31.96875 -48.8125 C -32.0625 -48.738281 -32.222656 -48.851562 -32.453125 -49.15625 C -32.679688 -49.46875 -32.75 -49.660156 -32.65625 -49.734375 L -28.59375 -52.6875 C -26.1875 -54.34375 -24.300781 -55.6875 -22.9375 -56.71875 C -21.53125 -57.789062 -20.125 -58.976562 -18.71875 -60.28125 C -18.257812 -60.707031 -17.539062 -61.328125 -16.5625 -62.140625 C -15.582031 -62.960938 -14.71875 -63.660156 -13.96875 -64.234375 C -9.375 -67.710938 -5.179688 -69.570312 -1.390625 -69.8125 C 2.390625 -70.0625 5.484375 -68.597656 7.890625 -65.421875 C 9.722656 -62.992188 10.59375 -60.191406 10.5 -57.015625 C 10.40625 -53.847656 9.28125 -50.578125 7.125 -47.203125 Z M -13.828125 -61.703125 C -15.296875 -60.585938 -16.046875 -59.476562 -16.078125 -58.375 C -16.117188 -57.28125 -15.429688 -55.800781 -14.015625 -53.9375 L -3.125 -39.546875 L -0.0625 -41.75 C 2.5625 -43.738281 3.832031 -46.25 3.75 -49.28125 C 3.675781 -52.320312 2.472656 -55.382812 0.140625 -58.46875 C -2.035156 -61.351562 -4.316406 -63.0625 -6.703125 -63.59375 C -9.085938 -64.125 -11.460938 -63.492188 -13.828125 -61.703125 Z M 21.125 -18.5 C 27.738281 -23.507812 28.445312 -29.445312 23.25 -36.3125 C 20.3125 -40.195312 17.046875 -42.566406 13.453125 -43.421875 C 9.859375 -44.273438 6.175781 -43.273438 2.40625 -40.421875 C 0.925781 -39.304688 -0.34375 -38.257812 -1.40625 -37.28125 L 12.40625 -19.03125 C 13.664062 -17.375 14.878906 -16.453125 16.046875 -16.265625 C 17.222656 -16.078125 18.914062 -16.820312 21.125 -18.5 Z M 21.125 -18.5 "/></g></g></g><g fill="#393636" fill-opacity="1"><g transform="translate(1058.030222, 421.55238)"><g><path d="M 18.375 -45.921875 C 18.269531 -46.015625 18.296875 -46.15625 18.453125 -46.34375 C 18.578125 -46.488281 18.726562 -46.59375 18.90625 -46.65625 C 19.09375 -46.71875 19.210938 -46.726562 19.265625 -46.6875 C 22.660156 -43.050781 25.921875 -39.941406 29.046875 -37.359375 C 29.429688 -37.035156 29.644531 -36.726562 29.6875 -36.4375 C 29.738281 -36.144531 29.585938 -35.785156 29.234375 -35.359375 L 2.484375 -3 C 2.359375 -2.851562 2.148438 -2.898438 1.859375 -3.140625 C 1.566406 -3.390625 1.484375 -3.585938 1.609375 -3.734375 C 2.898438 -5.296875 3.710938 -6.53125 4.046875 -7.4375 C 4.390625 -8.34375 4.304688 -9.210938 3.796875 -10.046875 C 3.296875 -10.878906 2.316406 -11.894531 0.859375 -13.09375 L -33.03125 -41.109375 C -34.5 -42.328125 -35.675781 -43.09375 -36.5625 -43.40625 C -37.445312 -43.726562 -38.328125 -43.632812 -39.203125 -43.125 C -40.078125 -42.625 -41.140625 -41.613281 -42.390625 -40.09375 C -42.515625 -39.945312 -42.722656 -39.992188 -43.015625 -40.234375 C -43.304688 -40.484375 -43.390625 -40.679688 -43.265625 -40.828125 L -17.609375 -71.859375 C -17.210938 -72.347656 -16.796875 -72.410156 -16.359375 -72.046875 L -6.5 -64.140625 C -6.40625 -64.054688 -6.441406 -63.859375 -6.609375 -63.546875 C -6.785156 -63.242188 -6.960938 -63.128906 -7.140625 -63.203125 C -10.617188 -64.753906 -13.804688 -65.164062 -16.703125 -64.4375 C -19.609375 -63.71875 -22.3125 -61.847656 -24.8125 -58.828125 L -26.625 -56.625 C -27.832031 -55.164062 -28.398438 -53.828125 -28.328125 -52.609375 C -28.265625 -51.398438 -27.570312 -50.253906 -26.25 -49.171875 L -11.328125 -36.828125 L -6.296875 -42.921875 C -3.960938 -45.742188 -2.65625 -48.3125 -2.375 -50.625 C -2.101562 -52.945312 -2.84375 -54.832031 -4.59375 -56.28125 C -4.738281 -56.40625 -4.703125 -56.601562 -4.484375 -56.875 C -4.265625 -57.144531 -4.082031 -57.21875 -3.9375 -57.09375 L 2.59375 -51.5625 L 6.15625 -48.75 C 7.90625 -47.46875 9.269531 -46.421875 10.25 -45.609375 C 10.34375 -45.535156 10.265625 -45.351562 10.015625 -45.0625 C 9.773438 -44.769531 9.609375 -44.660156 9.515625 -44.734375 C 7.503906 -46.398438 5.289062 -46.9375 2.875 -46.34375 C 0.457031 -45.75 -1.9375 -44.015625 -4.3125 -41.140625 L -9.28125 -35.125 L 7.265625 -21.453125 C 8.679688 -20.285156 9.953125 -19.6875 11.078125 -19.65625 C 12.210938 -19.632812 13.265625 -20.207031 14.234375 -21.375 L 16.234375 -23.796875 C 19.378906 -27.597656 21.117188 -31.289062 21.453125 -34.875 C 21.785156 -38.457031 20.757812 -42.140625 18.375 -45.921875 Z M 18.375 -45.921875 "/></g></g></g><g fill="#393636" fill-opacity="1"><g transform="translate(1136.878055, 311.875717)"><g><path d="M 28.234375 -61.03125 C 28.285156 -61.144531 28.484375 -61.117188 28.828125 -60.953125 C 29.171875 -60.785156 29.316406 -60.644531 29.265625 -60.53125 L 21.90625 -45.3125 C 21.300781 -44.0625 17.90625 -42.816406 11.71875 -41.578125 C 5.53125 -40.347656 -2.804688 -39.285156 -13.296875 -38.390625 C -13.460938 -37.898438 -13.75 -37.226562 -14.15625 -36.375 C -15.226562 -34.15625 -16.019531 -32.609375 -16.53125 -31.734375 L 2.375 -22.59375 C 4.132812 -21.738281 5.476562 -21.257812 6.40625 -21.15625 C 7.34375 -21.050781 8.15625 -21.34375 8.84375 -22.03125 C 9.53125 -22.726562 10.316406 -23.988281 11.203125 -25.8125 C 11.253906 -25.914062 11.453125 -25.882812 11.796875 -25.71875 C 12.140625 -25.550781 12.285156 -25.414062 12.234375 -25.3125 C 11.328125 -23.4375 10.582031 -21.96875 10 -20.90625 L 6.765625 -14.4375 L 3.84375 -8.15625 C 3.34375 -7 2.625 -5.445312 1.6875 -3.5 C 1.613281 -3.332031 1.40625 -3.332031 1.0625 -3.5 C 0.71875 -3.664062 0.582031 -3.832031 0.65625 -4 C 1.539062 -5.832031 2.039062 -7.226562 2.15625 -8.1875 C 2.269531 -9.144531 1.988281 -9.984375 1.3125 -10.703125 C 0.644531 -11.421875 -0.539062 -12.191406 -2.25 -13.015625 L -41.828125 -32.15625 C -43.546875 -32.976562 -44.875 -33.4375 -45.8125 -33.53125 C -46.75 -33.632812 -47.582031 -33.335938 -48.3125 -32.640625 C -49.039062 -31.941406 -49.832031 -30.707031 -50.6875 -28.9375 C -50.738281 -28.820312 -50.929688 -28.84375 -51.265625 -29 C -51.609375 -29.164062 -51.753906 -29.304688 -51.703125 -29.421875 L -49.4375 -33.90625 C -48.050781 -36.476562 -46.988281 -38.53125 -46.25 -40.0625 C -45.3125 -42.007812 -44.414062 -44.078125 -43.5625 -46.265625 C -43.257812 -47.035156 -42.867188 -47.988281 -42.390625 -49.125 C -41.910156 -50.269531 -41.34375 -51.523438 -40.6875 -52.890625 C -38.175781 -58.078125 -35.273438 -61.632812 -31.984375 -63.5625 C -28.703125 -65.488281 -25.351562 -65.625 -21.9375 -63.96875 C -18.800781 -62.457031 -16.375 -60.234375 -14.65625 -57.296875 C -12.945312 -54.359375 -12.007812 -51.09375 -11.84375 -47.5 C -2.800781 -48.75 4.398438 -49.976562 9.765625 -51.1875 C 15.128906 -52.394531 19.269531 -53.765625 22.1875 -55.296875 C 25.113281 -56.835938 27.128906 -58.75 28.234375 -61.03125 Z M -18.921875 -32.890625 C -18.035156 -34.128906 -17.117188 -35.722656 -16.171875 -37.671875 C -14.578125 -40.972656 -14.351562 -43.796875 -15.5 -46.140625 C -16.644531 -48.492188 -19.273438 -50.664062 -23.390625 -52.65625 C -28.066406 -54.914062 -31.613281 -55.785156 -34.03125 -55.265625 C -36.457031 -54.753906 -38.289062 -53.210938 -39.53125 -50.640625 C -40.632812 -48.359375 -40.992188 -46.53125 -40.609375 -45.15625 C -40.222656 -43.78125 -39.035156 -42.613281 -37.046875 -41.65625 Z M -18.921875 -32.890625 "/></g></g></g><g fill="#393636" fill-opacity="1"><g transform="translate(1192.316592, 173.217641)"><g><path d="M 8.859375 -39.015625 C 7.460938 -31.929688 4.925781 -26.039062 1.25 -21.34375 C -2.425781 -16.644531 -6.800781 -13.34375 -11.875 -11.4375 C -16.957031 -9.53125 -22.265625 -9.125 -27.796875 -10.21875 C -33.691406 -11.382812 -38.660156 -13.992188 -42.703125 -18.046875 C -46.753906 -22.109375 -49.519531 -27.15625 -51 -33.1875 C -52.488281 -39.226562 -52.554688 -45.695312 -51.203125 -52.59375 C -50.617188 -55.570312 -49.796875 -58.503906 -48.734375 -61.390625 C -47.679688 -64.273438 -46.609375 -66.550781 -45.515625 -68.21875 C -45.128906 -68.851562 -44.847656 -69.195312 -44.671875 -69.25 C -44.492188 -69.3125 -43.96875 -69.289062 -43.09375 -69.1875 L -29.90625 -67.84375 C -29.71875 -67.8125 -29.625 -67.613281 -29.625 -67.25 C -29.625 -66.894531 -29.757812 -66.710938 -30.03125 -66.703125 C -32.226562 -66.296875 -34.710938 -65.429688 -37.484375 -64.109375 C -40.265625 -62.785156 -42.84375 -60.84375 -45.21875 -58.28125 C -47.601562 -55.71875 -49.175781 -52.507812 -49.9375 -48.65625 C -50.71875 -44.675781 -50.347656 -40.828125 -48.828125 -37.109375 C -47.304688 -33.390625 -44.707031 -30.1875 -41.03125 -27.5 C -37.363281 -24.8125 -32.863281 -22.941406 -27.53125 -21.890625 C -21.6875 -20.734375 -16.25 -20.800781 -11.21875 -22.09375 C -6.195312 -23.394531 -2.023438 -25.753906 1.296875 -29.171875 C 4.617188 -32.585938 6.765625 -36.75 7.734375 -41.65625 C 8.234375 -44.195312 8.335938 -46.203125 8.046875 -47.671875 C 7.753906 -49.148438 6.863281 -50.359375 5.375 -51.296875 C 3.882812 -52.242188 1.550781 -53.03125 -1.625 -53.65625 C -4.851562 -54.289062 -7.140625 -54.546875 -8.484375 -54.421875 C -9.835938 -54.296875 -10.847656 -53.671875 -11.515625 -52.546875 C -12.179688 -51.429688 -12.816406 -49.347656 -13.421875 -46.296875 C -13.492188 -45.929688 -13.78125 -45.796875 -14.28125 -45.890625 C -14.46875 -45.929688 -14.625 -46.015625 -14.75 -46.140625 C -14.882812 -46.265625 -14.941406 -46.382812 -14.921875 -46.5 C -13.578125 -51.726562 -12.582031 -55.988281 -11.9375 -59.28125 C -11.3125 -62.445312 -10.753906 -65.75 -10.265625 -69.1875 C -10.222656 -69.4375 -9.976562 -69.535156 -9.53125 -69.484375 C -9.082031 -69.441406 -8.890625 -69.257812 -8.953125 -68.9375 C -9.234375 -67.832031 -9.1875 -67 -8.8125 -66.4375 C -8.445312 -65.882812 -7.5625 -65.40625 -6.15625 -65 C -4.75 -64.59375 -2.28125 -64.039062 1.25 -63.34375 C 4.039062 -62.800781 6.046875 -62.519531 7.265625 -62.5 C 8.492188 -62.488281 9.265625 -62.453125 9.578125 -62.390625 C 9.953125 -62.316406 10.191406 -62.203125 10.296875 -62.046875 C 10.398438 -61.890625 10.46875 -61.585938 10.5 -61.140625 C 10.664062 -52.785156 10.117188 -45.410156 8.859375 -39.015625 Z M 8.859375 -39.015625 "/></g></g></g><g fill="#393636" fill-opacity="1"><g transform="translate(1210.280128, 23.093443)"><g/></g></g></g></g><g transform="matrix(1, 0, 0, 1, 358, 711)"><g clip-path="url(#f8f9bd0ae2)"><g clip-path="url(#fa98e519cc)"><g fill="#393636" fill-opacity="1"><g transform="translate(0.446421, 58.909261)"><g/></g></g></g><g fill="#393636" fill-opacity="1"><g transform="translate(66.429304, 58.909261)"><g><path d="M 48.65625 -4.140625 C 46.863281 -2.960938 44.601562 -1.875 41.875 -0.875 C 39.144531 0.113281 36.171875 0.609375 32.953125 0.609375 C 27.273438 0.609375 22.28125 -0.640625 17.96875 -3.140625 C 13.65625 -5.640625 10.332031 -9.007812 8 -13.25 C 5.675781 -17.488281 4.515625 -22.164062 4.515625 -27.28125 C 4.515625 -32.75 5.691406 -37.664062 8.046875 -42.03125 C 10.398438 -46.394531 13.65625 -49.816406 17.8125 -52.296875 C 21.976562 -54.773438 26.691406 -56.015625 31.953125 -56.015625 C 35.066406 -56.015625 37.976562 -55.601562 40.6875 -54.78125 C 43.394531 -53.96875 45.820312 -52.894531 47.96875 -51.5625 L 44.984375 -44.59375 C 40.742188 -47.457031 36.476562 -48.890625 32.1875 -48.890625 C 28.601562 -48.890625 25.289062 -47.941406 22.25 -46.046875 C 19.21875 -44.160156 16.796875 -41.59375 14.984375 -38.34375 C 13.171875 -35.101562 12.265625 -31.539062 12.265625 -27.65625 C 12.265625 -23.675781 13.09375 -20.078125 14.75 -16.859375 C 16.40625 -13.640625 18.78125 -11.125 21.875 -9.3125 C 24.96875 -7.5 28.53125 -6.59375 32.5625 -6.59375 C 37.519531 -6.59375 41.835938 -7.992188 45.515625 -10.796875 Z M 48.65625 -4.140625 "/></g></g></g><g fill="#393636" fill-opacity="1"><g transform="translate(161.364671, 58.909261)"><g><path d="M 4.515625 -27.65625 C 4.515625 -32.71875 5.789062 -37.421875 8.34375 -41.765625 C 10.90625 -46.109375 14.34375 -49.566406 18.65625 -52.140625 C 22.976562 -54.722656 27.691406 -56.015625 32.796875 -56.015625 C 37.847656 -56.015625 42.546875 -54.722656 46.890625 -52.140625 C 51.234375 -49.566406 54.691406 -46.109375 57.265625 -41.765625 C 59.847656 -37.421875 61.140625 -32.71875 61.140625 -27.65625 C 61.140625 -22.550781 59.863281 -17.828125 57.3125 -13.484375 C 54.757812 -9.140625 51.296875 -5.703125 46.921875 -3.171875 C 42.554688 -0.648438 37.847656 0.609375 32.796875 0.609375 C 27.691406 0.609375 22.96875 -0.640625 18.625 -3.140625 C 14.28125 -5.640625 10.84375 -9.046875 8.3125 -13.359375 C 5.78125 -17.679688 4.515625 -22.445312 4.515625 -27.65625 Z M 12.1875 -27.578125 C 12.1875 -23.804688 13.101562 -20.3125 14.9375 -17.09375 C 16.78125 -13.875 19.296875 -11.316406 22.484375 -9.421875 C 25.679688 -7.535156 29.171875 -6.59375 32.953125 -6.59375 C 36.734375 -6.59375 40.191406 -7.523438 43.328125 -9.390625 C 46.472656 -11.253906 48.953125 -13.804688 50.765625 -17.046875 C 52.578125 -20.296875 53.484375 -23.832031 53.484375 -27.65625 C 53.484375 -31.488281 52.5625 -35.039062 50.71875 -38.3125 C 48.882812 -41.582031 46.382812 -44.160156 43.21875 -46.046875 C 40.050781 -47.941406 36.578125 -48.890625 32.796875 -48.890625 C 29.015625 -48.890625 25.539062 -47.929688 22.375 -46.015625 C 19.207031 -44.097656 16.71875 -41.503906 14.90625 -38.234375 C 13.09375 -34.960938 12.1875 -31.410156 12.1875 -27.578125 Z M 12.1875 -27.578125 "/></g></g></g><g fill="#393636" fill-opacity="1"><g transform="translate(265.799452, 58.909261)"><g><path d="M 37.015625 -14.5625 L 15.703125 -14.5625 L 9.8125 0 L 2.453125 0 L 26.671875 -57.703125 L 27.125 -57.703125 L 51.34375 0 L 42.75 0 Z M 34.484375 -21 L 26.59375 -41.21875 L 18.390625 -21 Z M 34.484375 -21 "/></g></g></g><g fill="#393636" fill-opacity="1"><g transform="translate(358.282562, 58.909261)"><g><path d="M 48.65625 -4.140625 C 46.863281 -2.960938 44.601562 -1.875 41.875 -0.875 C 39.144531 0.113281 36.171875 0.609375 32.953125 0.609375 C 27.273438 0.609375 22.28125 -0.640625 17.96875 -3.140625 C 13.65625 -5.640625 10.332031 -9.007812 8 -13.25 C 5.675781 -17.488281 4.515625 -22.164062 4.515625 -27.28125 C 4.515625 -32.75 5.691406 -37.664062 8.046875 -42.03125 C 10.398438 -46.394531 13.65625 -49.816406 17.8125 -52.296875 C 21.976562 -54.773438 26.691406 -56.015625 31.953125 -56.015625 C 35.066406 -56.015625 37.976562 -55.601562 40.6875 -54.78125 C 43.394531 -53.96875 45.820312 -52.894531 47.96875 -51.5625 L 44.984375 -44.59375 C 40.742188 -47.457031 36.476562 -48.890625 32.1875 -48.890625 C 28.601562 -48.890625 25.289062 -47.941406 22.25 -46.046875 C 19.21875 -44.160156 16.796875 -41.59375 14.984375 -38.34375 C 13.171875 -35.101562 12.265625 -31.539062 12.265625 -27.65625 C 12.265625 -23.675781 13.09375 -20.078125 14.75 -16.859375 C 16.40625 -13.640625 18.78125 -11.125 21.875 -9.3125 C 24.96875 -7.5 28.53125 -6.59375 32.5625 -6.59375 C 37.519531 -6.59375 41.835938 -7.992188 45.515625 -10.796875 Z M 48.65625 -4.140625 "/></g></g></g><g fill="#393636" fill-opacity="1"><g transform="translate(453.217929, 58.909261)"><g><path d="M 51.875 0 L 44.4375 0 L 44.4375 -24.296875 L 15.40625 -24.296875 L 15.40625 0 L 7.96875 0 L 7.96875 -55.40625 L 15.40625 -55.40625 L 15.40625 -31.421875 L 44.4375 -31.421875 L 44.4375 -55.40625 L 51.875 -55.40625 Z M 51.875 0 "/></g></g></g><g fill="#393636" fill-opacity="1"><g transform="translate(554.818659, 58.909261)"><g><path d="M 15.40625 -55.40625 L 15.40625 0 L 7.96875 0 L 7.96875 -55.40625 Z M 15.40625 -55.40625 "/></g></g></g><g fill="#393636" fill-opacity="1"><g transform="translate(619.951471, 58.909261)"><g><path d="M 56.25 -55.40625 L 56.25 1.84375 L 56.015625 1.84375 L 15.328125 -39.46875 L 15.484375 0 L 7.96875 0 L 7.96875 -57.078125 L 8.359375 -57.078125 L 48.96875 -15.328125 L 48.8125 -55.40625 Z M 56.25 -55.40625 "/></g></g></g><g fill="#393636" fill-opacity="1"><g transform="translate(725.919143, 58.909261)"><g><path d="M 51.421875 -4.75 C 49.734375 -3.425781 47.085938 -2.203125 43.484375 -1.078125 C 39.878906 0.046875 36.546875 0.609375 33.484375 0.609375 C 27.710938 0.609375 22.628906 -0.578125 18.234375 -2.953125 C 13.835938 -5.328125 10.453125 -8.582031 8.078125 -12.71875 C 5.703125 -16.851562 4.515625 -21.503906 4.515625 -26.671875 C 4.515625 -32.691406 5.789062 -37.910156 8.34375 -42.328125 C 10.90625 -46.753906 14.351562 -50.140625 18.6875 -52.484375 C 23.03125 -54.835938 27.785156 -56.015625 32.953125 -56.015625 C 36.066406 -56.015625 39.003906 -55.644531 41.765625 -54.90625 C 44.523438 -54.164062 47 -53.179688 49.1875 -51.953125 L 46.734375 -45.125 C 45.109375 -46.050781 43.054688 -46.859375 40.578125 -47.546875 C 38.097656 -48.234375 35.863281 -48.578125 33.875 -48.578125 C 29.582031 -48.578125 25.785156 -47.707031 22.484375 -45.96875 C 19.191406 -44.238281 16.648438 -41.765625 14.859375 -38.546875 C 13.078125 -35.328125 12.1875 -31.570312 12.1875 -27.28125 C 12.1875 -23.289062 13.078125 -19.738281 14.859375 -16.625 C 16.648438 -13.507812 19.179688 -11.09375 22.453125 -9.375 C 25.722656 -7.664062 29.453125 -6.8125 33.640625 -6.8125 C 35.578125 -6.8125 37.460938 -7.003906 39.296875 -7.390625 C 41.140625 -7.773438 42.675781 -8.328125 43.90625 -9.046875 L 43.90625 -20 L 32.875 -20 L 32.875 -27.125 L 51.421875 -27.125 Z M 51.421875 -4.75 "/></g></g></g></g></g><g transform="matrix(1, 0, 0, 1, 514, 796)"><g clip-path="url(#842a83bbac)"><g fill="#908581" fill-opacity="1"><g transform="translate(0.67548, 59.67651)"><g><path d="M 12.1875 -5.59375 C 12.1875 -4.320312 12.316406 -3.398438 12.578125 -2.828125 C 12.835938 -2.253906 13.316406 -1.867188 14.015625 -1.671875 C 14.722656 -1.472656 15.867188 -1.375 17.453125 -1.375 L 24.625 -1.375 C 27.125 -1.375 29.117188 -2.140625 30.609375 -3.671875 C 32.109375 -5.210938 33.097656 -7.347656 33.578125 -10.078125 C 33.578125 -10.203125 33.695312 -10.253906 33.9375 -10.234375 C 34.175781 -10.210938 34.296875 -10.140625 34.296875 -10.015625 C 33.910156 -6.367188 33.71875 -3.359375 33.71875 -0.984375 C 33.71875 -0.628906 33.648438 -0.375 33.515625 -0.21875 C 33.378906 -0.0703125 33.113281 0 32.71875 0 L 2.296875 0 C 2.210938 0 2.171875 -0.128906 2.171875 -0.390625 C 2.171875 -0.660156 2.210938 -0.796875 2.296875 -0.796875 C 3.972656 -0.796875 5.191406 -0.90625 5.953125 -1.125 C 6.722656 -1.34375 7.238281 -1.769531 7.5 -2.40625 C 7.769531 -3.039062 7.90625 -4.015625 7.90625 -5.328125 L 7.90625 -35.8125 C 7.90625 -37.132812 7.769531 -38.101562 7.5 -38.71875 C 7.238281 -39.332031 6.722656 -39.757812 5.953125 -40 C 5.191406 -40.238281 3.972656 -40.359375 2.296875 -40.359375 C 2.210938 -40.359375 2.171875 -40.488281 2.171875 -40.75 C 2.171875 -41.019531 2.210938 -41.15625 2.296875 -41.15625 L 5.53125 -41.09375 C 7.375 -41 8.867188 -40.953125 10.015625 -40.953125 C 11.242188 -40.953125 12.78125 -41 14.625 -41.09375 L 17.78125 -41.15625 C 17.90625 -41.15625 17.96875 -41.019531 17.96875 -40.75 C 17.96875 -40.488281 17.90625 -40.359375 17.78125 -40.359375 C 16.15625 -40.359375 14.957031 -40.238281 14.1875 -40 C 13.414062 -39.757812 12.890625 -39.320312 12.609375 -38.6875 C 12.328125 -38.050781 12.1875 -37.070312 12.1875 -35.75 Z M 12.1875 -5.59375 "/></g></g></g><g fill="#908581" fill-opacity="1"><g transform="translate(35.772315, 59.67651)"><g><path d="M 13.109375 -5.328125 C 13.109375 -4.015625 13.238281 -3.039062 13.5 -2.40625 C 13.757812 -1.769531 14.273438 -1.34375 15.046875 -1.125 C 15.816406 -0.90625 17.035156 -0.796875 18.703125 -0.796875 C 18.828125 -0.796875 18.890625 -0.660156 18.890625 -0.390625 C 18.890625 -0.128906 18.828125 0 18.703125 0 C 17.378906 0 16.328125 -0.0195312 15.546875 -0.0625 L 10.859375 -0.125 L 6.328125 -0.0625 C 5.535156 -0.0195312 4.457031 0 3.09375 0 C 2.957031 0 2.890625 -0.128906 2.890625 -0.390625 C 2.890625 -0.660156 2.957031 -0.796875 3.09375 -0.796875 C 4.757812 -0.796875 5.976562 -0.90625 6.75 -1.125 C 7.519531 -1.34375 8.046875 -1.769531 8.328125 -2.40625 C 8.609375 -3.039062 8.75 -4.015625 8.75 -5.328125 L 8.75 -35.8125 C 8.75 -37.132812 8.609375 -38.101562 8.328125 -38.71875 C 8.046875 -39.332031 7.519531 -39.757812 6.75 -40 C 5.976562 -40.238281 4.757812 -40.359375 3.09375 -40.359375 C 2.957031 -40.359375 2.890625 -40.488281 2.890625 -40.75 C 2.890625 -41.019531 2.957031 -41.15625 3.09375 -41.15625 L 6.328125 -41.09375 C 8.171875 -41 9.679688 -40.953125 10.859375 -40.953125 C 12.179688 -40.953125 13.765625 -41 15.609375 -41.09375 L 18.703125 -41.15625 C 18.828125 -41.15625 18.890625 -41.019531 18.890625 -40.75 C 18.890625 -40.488281 18.828125 -40.359375 18.703125 -40.359375 C 17.078125 -40.359375 15.878906 -40.226562 15.109375 -39.96875 C 14.335938 -39.707031 13.8125 -39.253906 13.53125 -38.609375 C 13.25 -37.972656 13.109375 -37 13.109375 -35.6875 Z M 13.109375 -5.328125 "/></g></g></g><g fill="#908581" fill-opacity="1"><g transform="translate(57.63376, 59.67651)"><g><path d="M 30.03125 -32.46875 C 30.03125 -32.332031 29.914062 -32.253906 29.6875 -32.234375 C 29.46875 -32.210938 29.335938 -32.265625 29.296875 -32.390625 C 29.171875 -34.722656 28.46875 -36.535156 27.1875 -37.828125 C 25.914062 -39.117188 24.226562 -39.765625 22.125 -39.765625 L 18.109375 -39.765625 C 16.617188 -39.765625 15.5 -39.65625 14.75 -39.4375 C 14 -39.21875 13.484375 -38.820312 13.203125 -38.25 C 12.921875 -37.6875 12.78125 -36.851562 12.78125 -35.75 L 12.78125 -21.328125 L 19.421875 -21.328125 C 21.742188 -21.328125 23.398438 -21.6875 24.390625 -22.40625 C 25.378906 -23.132812 25.875 -24.3125 25.875 -25.9375 C 25.875 -26.03125 26.003906 -26.078125 26.265625 -26.078125 C 26.535156 -26.078125 26.671875 -26.03125 26.671875 -25.9375 L 26.59375 -20.609375 C 26.59375 -19.335938 26.617188 -18.375 26.671875 -17.71875 L 26.734375 -14.546875 C 26.734375 -14.460938 26.597656 -14.421875 26.328125 -14.421875 C 26.066406 -14.421875 25.9375 -14.460938 25.9375 -14.546875 C 25.9375 -16.484375 25.421875 -17.867188 24.390625 -18.703125 C 23.359375 -19.535156 21.632812 -19.953125 19.21875 -19.953125 L 12.78125 -19.953125 L 12.78125 -5.59375 C 12.78125 -4.1875 12.960938 -3.164062 13.328125 -2.53125 C 13.703125 -1.894531 14.4375 -1.445312 15.53125 -1.1875 C 16.632812 -0.925781 18.367188 -0.796875 20.734375 -0.796875 C 20.867188 -0.796875 20.9375 -0.660156 20.9375 -0.390625 C 20.9375 -0.128906 20.867188 0 20.734375 0 C 18.941406 0 17.539062 -0.0195312 16.53125 -0.0625 L 10.59375 -0.125 L 6.125 -0.0625 C 5.332031 -0.0195312 4.210938 0 2.765625 0 C 2.679688 0 2.640625 -0.128906 2.640625 -0.390625 C 2.640625 -0.660156 2.679688 -0.796875 2.765625 -0.796875 C 4.429688 -0.796875 5.660156 -0.90625 6.453125 -1.125 C 7.242188 -1.34375 7.78125 -1.769531 8.0625 -2.40625 C 8.351562 -3.039062 8.5 -4.015625 8.5 -5.328125 L 8.5 -35.8125 C 8.5 -37.132812 8.351562 -38.101562 8.0625 -38.71875 C 7.78125 -39.332031 7.253906 -39.757812 6.484375 -40 C 5.710938 -40.238281 4.492188 -40.359375 2.828125 -40.359375 C 2.742188 -40.359375 2.703125 -40.488281 2.703125 -40.75 C 2.703125 -41.019531 2.742188 -41.15625 2.828125 -41.15625 L 29.296875 -41.15625 C 29.691406 -41.15625 29.890625 -40.957031 29.890625 -40.5625 Z M 30.03125 -32.46875 "/></g></g></g><g fill="#908581" fill-opacity="1"><g transform="translate(91.150246, 59.67651)"><g><path d="M 31.28125 -9.8125 C 31.28125 -9.894531 31.367188 -9.9375 31.546875 -9.9375 C 31.671875 -9.9375 31.785156 -9.914062 31.890625 -9.875 C 32.003906 -9.832031 32.0625 -9.765625 32.0625 -9.671875 C 31.664062 -6.910156 31.46875 -4.015625 31.46875 -0.984375 C 31.46875 -0.628906 31.390625 -0.375 31.234375 -0.21875 C 31.085938 -0.0703125 30.816406 0 30.421875 0 L 2.828125 0 C 2.742188 0 2.703125 -0.128906 2.703125 -0.390625 C 2.703125 -0.660156 2.742188 -0.796875 2.828125 -0.796875 C 4.492188 -0.796875 5.710938 -0.90625 6.484375 -1.125 C 7.253906 -1.34375 7.78125 -1.769531 8.0625 -2.40625 C 8.351562 -3.039062 8.5 -4.015625 8.5 -5.328125 L 8.5 -35.8125 C 8.5 -37.132812 8.351562 -38.101562 8.0625 -38.71875 C 7.78125 -39.332031 7.253906 -39.757812 6.484375 -40 C 5.710938 -40.238281 4.492188 -40.359375 2.828125 -40.359375 C 2.742188 -40.359375 2.703125 -40.488281 2.703125 -40.75 C 2.703125 -41.019531 2.742188 -41.15625 2.828125 -41.15625 L 29.296875 -41.15625 C 29.691406 -41.15625 29.890625 -40.957031 29.890625 -40.5625 L 30.03125 -32.46875 C 30.03125 -32.332031 29.914062 -32.253906 29.6875 -32.234375 C 29.46875 -32.210938 29.335938 -32.265625 29.296875 -32.390625 C 29.171875 -34.722656 28.46875 -36.535156 27.1875 -37.828125 C 25.914062 -39.117188 24.226562 -39.765625 22.125 -39.765625 L 18.109375 -39.765625 C 16.566406 -39.765625 15.429688 -39.644531 14.703125 -39.40625 C 13.984375 -39.164062 13.484375 -38.75 13.203125 -38.15625 C 12.921875 -37.5625 12.78125 -36.671875 12.78125 -35.484375 L 12.78125 -22.125 L 20.8125 -22.125 C 22.914062 -22.125 24.414062 -22.472656 25.3125 -23.171875 C 26.21875 -23.878906 26.671875 -25.066406 26.671875 -26.734375 C 26.671875 -26.816406 26.800781 -26.859375 27.0625 -26.859375 C 27.320312 -26.859375 27.453125 -26.816406 27.453125 -26.734375 L 27.390625 -21.40625 C 27.390625 -20.125 27.410156 -19.15625 27.453125 -18.5 L 27.515625 -15.34375 C 27.515625 -15.25 27.382812 -15.203125 27.125 -15.203125 C 26.863281 -15.203125 26.734375 -15.25 26.734375 -15.34375 C 26.734375 -17.269531 26.257812 -18.648438 25.3125 -19.484375 C 24.375 -20.316406 22.804688 -20.734375 20.609375 -20.734375 L 12.78125 -20.734375 L 12.78125 -5.59375 C 12.78125 -4.363281 12.910156 -3.460938 13.171875 -2.890625 C 13.429688 -2.328125 13.910156 -1.929688 14.609375 -1.703125 C 15.316406 -1.484375 16.414062 -1.375 17.90625 -1.375 L 23.171875 -1.375 C 25.285156 -1.375 27.039062 -2.117188 28.4375 -3.609375 C 29.84375 -5.109375 30.789062 -7.175781 31.28125 -9.8125 Z M 31.28125 -9.8125 "/></g></g></g><g fill="#908581" fill-opacity="1"><g transform="translate(126.510479, 59.67651)"><g/></g></g><g fill="#908581" fill-opacity="1"><g transform="translate(141.918844, 59.67651)"><g><path d="M 2.109375 -10.859375 C 2.015625 -10.816406 1.9375 -10.972656 1.875 -11.328125 C 1.8125 -11.679688 1.78125 -12.03125 1.78125 -12.375 C 1.78125 -13.207031 1.84375 -13.625 1.96875 -13.625 L 19.15625 -16.71875 C 19.25 -16.769531 19.328125 -16.648438 19.390625 -16.359375 C 19.453125 -16.078125 19.484375 -15.757812 19.484375 -15.40625 C 19.484375 -14.53125 19.375 -14.046875 19.15625 -13.953125 Z M 2.109375 -10.859375 "/></g></g></g><g fill="#908581" fill-opacity="1"><g transform="translate(163.187663, 59.67651)"><g/></g></g><g fill="#908581" fill-opacity="1"><g transform="translate(178.596029, 59.67651)"><g><path d="M 21.859375 -23.171875 C 25.328125 -22.910156 28.125 -21.757812 30.25 -19.71875 C 32.382812 -17.675781 33.453125 -15.140625 33.453125 -12.109375 C 33.453125 -9.785156 32.878906 -7.679688 31.734375 -5.796875 C 30.597656 -3.910156 29.03125 -2.425781 27.03125 -1.34375 C 25.03125 -0.269531 22.800781 0.265625 20.34375 0.265625 C 18.894531 0.265625 17.316406 0.195312 15.609375 0.0625 C 14.992188 0.0195312 14.269531 -0.0195312 13.4375 -0.0625 C 12.601562 -0.101562 11.679688 -0.125 10.671875 -0.125 L 6.1875 -0.0625 C 5.394531 -0.0195312 4.273438 0 2.828125 0 C 2.742188 0 2.703125 -0.128906 2.703125 -0.390625 C 2.703125 -0.660156 2.742188 -0.796875 2.828125 -0.796875 C 4.453125 -0.796875 5.660156 -0.914062 6.453125 -1.15625 C 7.242188 -1.394531 7.789062 -1.820312 8.09375 -2.4375 C 8.40625 -3.050781 8.5625 -4.015625 8.5625 -5.328125 L 8.5625 -35.8125 C 8.5625 -37.132812 8.414062 -38.101562 8.125 -38.71875 C 7.84375 -39.332031 7.316406 -39.757812 6.546875 -40 C 5.785156 -40.238281 4.59375 -40.359375 2.96875 -40.359375 C 2.832031 -40.359375 2.765625 -40.488281 2.765625 -40.75 C 2.765625 -41.019531 2.832031 -41.15625 2.96875 -41.15625 L 6.1875 -41.09375 C 8.03125 -41 9.523438 -40.953125 10.671875 -40.953125 C 11.460938 -40.953125 12.195312 -40.972656 12.875 -41.015625 C 13.550781 -41.066406 14.132812 -41.113281 14.625 -41.15625 C 15.976562 -41.28125 17.25 -41.34375 18.4375 -41.34375 C 22.125 -41.34375 24.890625 -40.539062 26.734375 -38.9375 C 28.578125 -37.34375 29.5 -35.25 29.5 -32.65625 C 29.5 -30.550781 28.816406 -28.675781 27.453125 -27.03125 C 26.097656 -25.382812 24.234375 -24.097656 21.859375 -23.171875 Z M 17.046875 -40.359375 C 15.910156 -40.359375 15.054688 -40.257812 14.484375 -40.0625 C 13.910156 -39.863281 13.492188 -39.445312 13.234375 -38.8125 C 12.972656 -38.175781 12.84375 -37.132812 12.84375 -35.6875 L 12.84375 -23.171875 L 15.796875 -23.109375 C 19.003906 -23.109375 21.375 -23.929688 22.90625 -25.578125 C 24.445312 -27.222656 25.21875 -29.40625 25.21875 -32.125 C 25.21875 -34.582031 24.546875 -36.566406 23.203125 -38.078125 C 21.867188 -39.597656 19.816406 -40.359375 17.046875 -40.359375 Z M 19.359375 -0.921875 C 22.566406 -0.921875 24.945312 -1.742188 26.5 -3.390625 C 28.0625 -5.035156 28.84375 -7.394531 28.84375 -10.46875 C 28.84375 -13.800781 27.863281 -16.5 25.90625 -18.5625 C 23.957031 -20.625 21.269531 -21.679688 17.84375 -21.734375 C 16.4375 -21.773438 14.769531 -21.726562 12.84375 -21.59375 L 12.84375 -5.328125 C 12.84375 -4.191406 13.003906 -3.316406 13.328125 -2.703125 C 13.660156 -2.085938 14.296875 -1.632812 15.234375 -1.34375 C 16.179688 -1.0625 17.554688 -0.921875 19.359375 -0.921875 Z M 19.359375 -0.921875 "/></g></g></g><g fill="#908581" fill-opacity="1"><g transform="translate(215.339064, 59.67651)"><g><path d="M 46.03125 -0.796875 C 46.195312 -0.796875 46.28125 -0.660156 46.28125 -0.390625 C 46.28125 -0.128906 46.195312 0 46.03125 0 C 45.195312 0 43.898438 -0.0390625 42.140625 -0.125 C 40.378906 -0.21875 39.109375 -0.265625 38.328125 -0.265625 C 37.359375 -0.265625 36.128906 -0.21875 34.640625 -0.125 C 33.234375 -0.0390625 32.15625 0 31.40625 0 C 31.226562 0 31.140625 -0.128906 31.140625 -0.390625 C 31.140625 -0.660156 31.226562 -0.796875 31.40625 -0.796875 C 33.03125 -0.796875 34.210938 -0.945312 34.953125 -1.25 C 35.703125 -1.5625 36.078125 -2.085938 36.078125 -2.828125 C 36.078125 -3.441406 35.789062 -4.382812 35.21875 -5.65625 L 29.359375 -18.109375 L 13.703125 -18.109375 L 9.546875 -8.359375 C 8.929688 -6.867188 8.625 -5.660156 8.625 -4.734375 C 8.625 -3.378906 9.160156 -2.382812 10.234375 -1.75 C 11.316406 -1.113281 12.929688 -0.796875 15.078125 -0.796875 C 15.296875 -0.796875 15.40625 -0.660156 15.40625 -0.390625 C 15.40625 -0.128906 15.296875 0 15.078125 0 C 14.285156 0 13.144531 -0.0390625 11.65625 -0.125 C 9.988281 -0.21875 8.539062 -0.265625 7.3125 -0.265625 C 6.164062 -0.265625 4.847656 -0.21875 3.359375 -0.125 C 2.035156 -0.0390625 0.9375 0 0.0625 0 C -0.15625 0 -0.265625 -0.128906 -0.265625 -0.390625 C -0.265625 -0.660156 -0.15625 -0.796875 0.0625 -0.796875 C 1.289062 -0.796875 2.332031 -1.023438 3.1875 -1.484375 C 4.050781 -1.941406 4.863281 -2.75 5.625 -3.90625 C 6.394531 -5.070312 7.242188 -6.753906 8.171875 -8.953125 L 22.0625 -41.75 C 22.144531 -41.875 22.296875 -41.9375 22.515625 -41.9375 C 22.734375 -41.9375 22.863281 -41.875 22.90625 -41.75 L 38.453125 -9.015625 C 39.941406 -5.765625 41.210938 -3.582031 42.265625 -2.46875 C 43.328125 -1.351562 44.582031 -0.796875 46.03125 -0.796875 Z M 14.21875 -19.421875 L 28.78125 -19.421875 L 21.0625 -35.6875 Z M 14.21875 -19.421875 "/></g></g></g><g fill="#908581" fill-opacity="1"><g transform="translate(261.564161, 59.67651)"><g><path d="M 12.1875 -5.59375 C 12.1875 -4.320312 12.316406 -3.398438 12.578125 -2.828125 C 12.835938 -2.253906 13.316406 -1.867188 14.015625 -1.671875 C 14.722656 -1.472656 15.867188 -1.375 17.453125 -1.375 L 24.625 -1.375 C 27.125 -1.375 29.117188 -2.140625 30.609375 -3.671875 C 32.109375 -5.210938 33.097656 -7.347656 33.578125 -10.078125 C 33.578125 -10.203125 33.695312 -10.253906 33.9375 -10.234375 C 34.175781 -10.210938 34.296875 -10.140625 34.296875 -10.015625 C 33.910156 -6.367188 33.71875 -3.359375 33.71875 -0.984375 C 33.71875 -0.628906 33.648438 -0.375 33.515625 -0.21875 C 33.378906 -0.0703125 33.113281 0 32.71875 0 L 2.296875 0 C 2.210938 0 2.171875 -0.128906 2.171875 -0.390625 C 2.171875 -0.660156 2.210938 -0.796875 2.296875 -0.796875 C 3.972656 -0.796875 5.191406 -0.90625 5.953125 -1.125 C 6.722656 -1.34375 7.238281 -1.769531 7.5 -2.40625 C 7.769531 -3.039062 7.90625 -4.015625 7.90625 -5.328125 L 7.90625 -35.8125 C 7.90625 -37.132812 7.769531 -38.101562 7.5 -38.71875 C 7.238281 -39.332031 6.722656 -39.757812 5.953125 -40 C 5.191406 -40.238281 3.972656 -40.359375 2.296875 -40.359375 C 2.210938 -40.359375 2.171875 -40.488281 2.171875 -40.75 C 2.171875 -41.019531 2.210938 -41.15625 2.296875 -41.15625 L 5.53125 -41.09375 C 7.375 -41 8.867188 -40.953125 10.015625 -40.953125 C 11.242188 -40.953125 12.78125 -41 14.625 -41.09375 L 17.78125 -41.15625 C 17.90625 -41.15625 17.96875 -41.019531 17.96875 -40.75 C 17.96875 -40.488281 17.90625 -40.359375 17.78125 -40.359375 C 16.15625 -40.359375 14.957031 -40.238281 14.1875 -40 C 13.414062 -39.757812 12.890625 -39.320312 12.609375 -38.6875 C 12.328125 -38.050781 12.1875 -37.070312 12.1875 -35.75 Z M 12.1875 -5.59375 "/></g></g></g><g fill="#908581" fill-opacity="1"><g transform="translate(296.660996, 59.67651)"><g><path d="M 46.03125 -0.796875 C 46.195312 -0.796875 46.28125 -0.660156 46.28125 -0.390625 C 46.28125 -0.128906 46.195312 0 46.03125 0 C 45.195312 0 43.898438 -0.0390625 42.140625 -0.125 C 40.378906 -0.21875 39.109375 -0.265625 38.328125 -0.265625 C 37.359375 -0.265625 36.128906 -0.21875 34.640625 -0.125 C 33.234375 -0.0390625 32.15625 0 31.40625 0 C 31.226562 0 31.140625 -0.128906 31.140625 -0.390625 C 31.140625 -0.660156 31.226562 -0.796875 31.40625 -0.796875 C 33.03125 -0.796875 34.210938 -0.945312 34.953125 -1.25 C 35.703125 -1.5625 36.078125 -2.085938 36.078125 -2.828125 C 36.078125 -3.441406 35.789062 -4.382812 35.21875 -5.65625 L 29.359375 -18.109375 L 13.703125 -18.109375 L 9.546875 -8.359375 C 8.929688 -6.867188 8.625 -5.660156 8.625 -4.734375 C 8.625 -3.378906 9.160156 -2.382812 10.234375 -1.75 C 11.316406 -1.113281 12.929688 -0.796875 15.078125 -0.796875 C 15.296875 -0.796875 15.40625 -0.660156 15.40625 -0.390625 C 15.40625 -0.128906 15.296875 0 15.078125 0 C 14.285156 0 13.144531 -0.0390625 11.65625 -0.125 C 9.988281 -0.21875 8.539062 -0.265625 7.3125 -0.265625 C 6.164062 -0.265625 4.847656 -0.21875 3.359375 -0.125 C 2.035156 -0.0390625 0.9375 0 0.0625 0 C -0.15625 0 -0.265625 -0.128906 -0.265625 -0.390625 C -0.265625 -0.660156 -0.15625 -0.796875 0.0625 -0.796875 C 1.289062 -0.796875 2.332031 -1.023438 3.1875 -1.484375 C 4.050781 -1.941406 4.863281 -2.75 5.625 -3.90625 C 6.394531 -5.070312 7.242188 -6.753906 8.171875 -8.953125 L 22.0625 -41.75 C 22.144531 -41.875 22.296875 -41.9375 22.515625 -41.9375 C 22.734375 -41.9375 22.863281 -41.875 22.90625 -41.75 L 38.453125 -9.015625 C 39.941406 -5.765625 41.210938 -3.582031 42.265625 -2.46875 C 43.328125 -1.351562 44.582031 -0.796875 46.03125 -0.796875 Z M 14.21875 -19.421875 L 28.78125 -19.421875 L 21.0625 -35.6875 Z M 14.21875 -19.421875 "/></g></g></g><g fill="#908581" fill-opacity="1"><g transform="translate(342.886093, 59.67651)"><g><path d="M 46.359375 -41.15625 C 46.484375 -41.15625 46.546875 -41.019531 46.546875 -40.75 C 46.546875 -40.488281 46.484375 -40.359375 46.359375 -40.359375 C 44.515625 -40.359375 43.175781 -39.851562 42.34375 -38.84375 C 41.507812 -37.832031 41.09375 -36.1875 41.09375 -33.90625 L 41.09375 0.796875 C 41.09375 0.878906 40.976562 0.941406 40.75 0.984375 C 40.53125 1.023438 40.378906 1.003906 40.296875 0.921875 L 10.015625 -35.75 L 9.421875 -36.40625 L 9.421875 -7.171875 C 9.421875 -4.890625 9.828125 -3.253906 10.640625 -2.265625 C 11.453125 -1.285156 12.753906 -0.796875 14.546875 -0.796875 C 14.679688 -0.796875 14.75 -0.660156 14.75 -0.390625 C 14.75 -0.128906 14.679688 0 14.546875 0 C 13.453125 0 12.617188 -0.0195312 12.046875 -0.0625 L 8.75 -0.125 L 5.40625 -0.0625 C 4.789062 -0.0195312 3.890625 0 2.703125 0 C 2.609375 0 2.5625 -0.128906 2.5625 -0.390625 C 2.5625 -0.660156 2.609375 -0.796875 2.703125 -0.796875 C 4.585938 -0.796875 5.925781 -1.285156 6.71875 -2.265625 C 7.507812 -3.253906 7.90625 -4.890625 7.90625 -7.171875 L 7.90625 -37.984375 C 6.1875 -39.566406 4.453125 -40.359375 2.703125 -40.359375 C 2.566406 -40.359375 2.5 -40.488281 2.5 -40.75 C 2.5 -41.019531 2.566406 -41.15625 2.703125 -41.15625 L 5.140625 -41.09375 C 5.660156 -41.039062 6.382812 -41.015625 7.3125 -41.015625 C 8.269531 -41.015625 9.054688 -41.035156 9.671875 -41.078125 C 10.285156 -41.128906 10.769531 -41.15625 11.125 -41.15625 C 11.476562 -41.15625 11.726562 -41.078125 11.875 -40.921875 C 12.03125 -40.765625 12.285156 -40.425781 12.640625 -39.90625 C 13.171875 -39.113281 13.695312 -38.390625 14.21875 -37.734375 L 39.578125 -6.578125 L 39.578125 -33.90625 C 39.578125 -36.1875 39.191406 -37.832031 38.421875 -38.84375 C 37.648438 -39.851562 36.363281 -40.359375 34.5625 -40.359375 C 34.476562 -40.359375 34.4375 -40.488281 34.4375 -40.75 C 34.4375 -41.019531 34.476562 -41.15625 34.5625 -41.15625 L 37.140625 -41.09375 C 38.453125 -41 39.523438 -40.953125 40.359375 -40.953125 C 41.148438 -40.953125 42.25 -41 43.65625 -41.09375 Z M 46.359375 -41.15625 "/></g></g></g><g fill="#908581" fill-opacity="1"><g transform="translate(390.75737, 59.67651)"><g><path d="M 27.0625 -41.875 C 29.820312 -41.875 32.144531 -41.675781 34.03125 -41.28125 C 35.925781 -40.882812 37.816406 -40.207031 39.703125 -39.25 C 40.015625 -39.070312 40.191406 -38.914062 40.234375 -38.78125 C 40.273438 -38.644531 40.335938 -38.316406 40.421875 -37.796875 L 41.21875 -29.953125 C 41.21875 -29.828125 41.097656 -29.753906 40.859375 -29.734375 C 40.617188 -29.710938 40.472656 -29.765625 40.421875 -29.890625 C 38.410156 -37.222656 33.890625 -40.890625 26.859375 -40.890625 C 23.171875 -40.890625 19.921875 -40.078125 17.109375 -38.453125 C 14.304688 -36.828125 12.132812 -34.507812 10.59375 -31.5 C 9.0625 -28.5 8.296875 -25 8.296875 -21 C 8.296875 -17.1875 9.140625 -13.6875 10.828125 -10.5 C 12.515625 -7.320312 14.796875 -4.8125 17.671875 -2.96875 C 20.546875 -1.125 23.675781 -0.203125 27.0625 -0.203125 C 30.664062 -0.203125 33.582031 -1.078125 35.8125 -2.828125 C 38.050781 -4.585938 39.765625 -7.265625 40.953125 -10.859375 C 40.953125 -10.953125 41.0625 -11 41.28125 -11 C 41.59375 -11 41.75 -10.929688 41.75 -10.796875 L 41.09375 -3.5625 C 41.039062 -3.03125 40.96875 -2.695312 40.875 -2.5625 C 40.789062 -2.4375 40.617188 -2.285156 40.359375 -2.109375 C 38.078125 -1.003906 35.9375 -0.234375 33.9375 0.203125 C 31.945312 0.640625 29.65625 0.859375 27.0625 0.859375 C 22.445312 0.859375 18.328125 -0.0507812 14.703125 -1.875 C 11.085938 -3.695312 8.269531 -6.253906 6.25 -9.546875 C 4.226562 -12.835938 3.21875 -16.613281 3.21875 -20.875 C 3.21875 -25 4.25 -28.648438 6.3125 -31.828125 C 8.382812 -35.015625 11.226562 -37.484375 14.84375 -39.234375 C 18.46875 -40.992188 22.539062 -41.875 27.0625 -41.875 Z M 27.0625 -41.875 "/></g></g></g><g fill="#908581" fill-opacity="1"><g transform="translate(435.928951, 59.67651)"><g><path d="M 31.28125 -9.8125 C 31.28125 -9.894531 31.367188 -9.9375 31.546875 -9.9375 C 31.671875 -9.9375 31.785156 -9.914062 31.890625 -9.875 C 32.003906 -9.832031 32.0625 -9.765625 32.0625 -9.671875 C 31.664062 -6.910156 31.46875 -4.015625 31.46875 -0.984375 C 31.46875 -0.628906 31.390625 -0.375 31.234375 -0.21875 C 31.085938 -0.0703125 30.816406 0 30.421875 0 L 2.828125 0 C 2.742188 0 2.703125 -0.128906 2.703125 -0.390625 C 2.703125 -0.660156 2.742188 -0.796875 2.828125 -0.796875 C 4.492188 -0.796875 5.710938 -0.90625 6.484375 -1.125 C 7.253906 -1.34375 7.78125 -1.769531 8.0625 -2.40625 C 8.351562 -3.039062 8.5 -4.015625 8.5 -5.328125 L 8.5 -35.8125 C 8.5 -37.132812 8.351562 -38.101562 8.0625 -38.71875 C 7.78125 -39.332031 7.253906 -39.757812 6.484375 -40 C 5.710938 -40.238281 4.492188 -40.359375 2.828125 -40.359375 C 2.742188 -40.359375 2.703125 -40.488281 2.703125 -40.75 C 2.703125 -41.019531 2.742188 -41.15625 2.828125 -41.15625 L 29.296875 -41.15625 C 29.691406 -41.15625 29.890625 -40.957031 29.890625 -40.5625 L 30.03125 -32.46875 C 30.03125 -32.332031 29.914062 -32.253906 29.6875 -32.234375 C 29.46875 -32.210938 29.335938 -32.265625 29.296875 -32.390625 C 29.171875 -34.722656 28.46875 -36.535156 27.1875 -37.828125 C 25.914062 -39.117188 24.226562 -39.765625 22.125 -39.765625 L 18.109375 -39.765625 C 16.566406 -39.765625 15.429688 -39.644531 14.703125 -39.40625 C 13.984375 -39.164062 13.484375 -38.75 13.203125 -38.15625 C 12.921875 -37.5625 12.78125 -36.671875 12.78125 -35.484375 L 12.78125 -22.125 L 20.8125 -22.125 C 22.914062 -22.125 24.414062 -22.472656 25.3125 -23.171875 C 26.21875 -23.878906 26.671875 -25.066406 26.671875 -26.734375 C 26.671875 -26.816406 26.800781 -26.859375 27.0625 -26.859375 C 27.320312 -26.859375 27.453125 -26.816406 27.453125 -26.734375 L 27.390625 -21.40625 C 27.390625 -20.125 27.410156 -19.15625 27.453125 -18.5 L 27.515625 -15.34375 C 27.515625 -15.25 27.382812 -15.203125 27.125 -15.203125 C 26.863281 -15.203125 26.734375 -15.25 26.734375 -15.34375 C 26.734375 -17.269531 26.257812 -18.648438 25.3125 -19.484375 C 24.375 -20.316406 22.804688 -20.734375 20.609375 -20.734375 L 12.78125 -20.734375 L 12.78125 -5.59375 C 12.78125 -4.363281 12.910156 -3.460938 13.171875 -2.890625 C 13.429688 -2.328125 13.910156 -1.929688 14.609375 -1.703125 C 15.316406 -1.484375 16.414062 -1.375 17.90625 -1.375 L 23.171875 -1.375 C 25.285156 -1.375 27.039062 -2.117188 28.4375 -3.609375 C 29.84375 -5.109375 30.789062 -7.175781 31.28125 -9.8125 Z M 31.28125 -9.8125 "/></g></g></g></g></g></svg>